<svg width="118" height="118" viewBox="0 0 118 118" fill="none" xmlns="http://www.w3.org/2000/svg">
<g filter="url(#filter0_d)">
<path fill-rule="evenodd" clip-rule="evenodd" d="M59 110C89.3757 110 114 85.3757 114 55C114 24.6243 89.3757 0 59 0C28.6243 0 4 24.6243 4 55C4 85.3757 28.6243 110 59 110Z" fill="#6852ED"/>

<path d="M71.6094 63.7461C71.8047 64.0391 72 64.332 72 64.625C72 64.918 71.8047 65.2109 71.6094 65.4062L60.2812 76.7344C60.0859 77.0273 59.793 77.125 59.5 77.125C59.1094 77.125 58.9141 77.0273 58.7188 76.7344L47.3906 65.4062C47.0977 65.2109 47 64.918 47 64.625C47 64.332 47.0977 64.0391 47.3906 63.7461L48.0742 63.0625C48.2695 62.8672 48.4648 62.6719 48.8555 62.6719C49.1484 62.6719 49.4414 62.8672 49.7344 63.0625L57.8398 71.2656V34.5469C57.8398 34.2539 57.9375 33.9609 58.1328 33.7656C58.3281 33.5703 58.6211 33.375 59.0117 33.375H59.9883C60.2812 33.375 60.5742 33.5703 60.7695 33.7656C60.9648 33.9609 61.1602 34.2539 61.1602 34.5469V71.2656L69.2656 63.0625C69.4609 62.8672 69.7539 62.6719 70.1445 62.6719C70.4375 62.6719 70.7305 62.8672 70.9258 63.0625L71.6094 63.7461Z" fill="white"/>
</g>
<defs>
<filter id="filter0_d" x="0" y="0" width="118" height="118" filterUnits="userSpaceOnUse" color-interpolation-filters="sRGB">
<feFlood flood-opacity="0" result="BackgroundImageFix"/>
<feColorMatrix in="SourceAlpha" type="matrix" values="0 0 0 0 0 0 0 0 0 0 0 0 0 0 0 0 0 0 127 0"/>
<feOffset dy="4"/>
<feGaussianBlur stdDeviation="2"/>
<feColorMatrix type="matrix" values="0 0 0 0 0 0 0 0 0 0 0 0 0 0 0 0 0 0 0.25 0"/>
<feBlend mode="normal" in2="BackgroundImageFix" result="effect1_dropShadow"/>
<feBlend mode="normal" in="SourceGraphic" in2="effect1_dropShadow" result="shape"/>
</filter>
</defs>
</svg>
